<svg width="184" height="31" viewBox="0 0 184 31" fill="none" xmlns="http://www.w3.org/2000/svg">
  <path d="M49.0956 17.5505C49.7019 17.188 50.0051 16.7395 50.0051 16.2052C50.0051 15.6709 49.7019 15.2225 49.0956 14.8599C48.5196 14.4783 47.8071 14.2875 46.9582 14.2875H33.2243C32.3754 14.2875 31.6478 14.4688 31.0414 14.8313C30.4654 15.213 30.1774 15.6709 30.1774 16.2052C30.1774 16.7395 30.4654 17.1975 31.0414 17.5792C31.6478 17.9417 32.3754 18.123 33.2243 18.123H46.9582C47.8071 18.123 48.5196 17.9322 49.0956 17.5505Z" fill="#0F051F"/>
  <path fill-rule="evenodd" clip-rule="evenodd" d="M51.636 20.8249L53.0391 17.5978L54.6013 14.005C55.4734 11.9129 56.3455 10.2223 57.2176 8.93339C58.0708 7.66314 59.3221 7.01868 60.9716 7C62.6021 7.01868 63.8439 7.66314 64.6971 8.93339C65.5692 10.185 66.4413 11.8755 67.3134 14.005L70.4417 21.9628C70.5365 22.1683 70.5934 22.3924 70.6123 22.6353C70.6502 23.1583 70.4891 23.6066 70.1289 23.9802C69.7876 24.3538 69.3421 24.5406 68.7922 24.5406C68.1666 24.5406 67.7021 24.4192 67.3987 24.1764C67.1143 23.9149 66.8774 23.588 66.6878 23.1957L66.1232 21.2218H60.4312H57.8717H56.6015H55.2706L55.1801 21.1557L54.6013 22.2838L53.6565 23.9871C53.0926 24.1048 52.638 24.128 52.2724 24.0874L51.9564 24.1103L40.0289 24.1764H39.4885C38.1614 24.1017 37.0617 23.6066 36.1896 22.6913C35.3767 21.8013 34.7789 20.8011 34.3963 19.6907H38.7403C39.2015 20.1832 39.7732 20.7895 40.4554 20.8249H47.352H51.636ZM32.5468 19.6587C32.5149 20.3367 32.3269 21.0146 31.9829 21.6926C31.6037 22.4212 30.9875 23.075 30.1344 23.654C29.2812 24.2145 28.191 24.4947 26.8639 24.4947H26.6933C26.5795 24.5133 26.4657 24.5227 26.352 24.5227H14.9196C14.4077 24.504 13.9716 24.3265 13.6114 23.9903C13.2701 23.6354 13.09 23.2057 13.071 22.7014V9.86812C13.09 9.36376 13.2701 8.94345 13.6114 8.60721C13.9716 8.25229 14.4077 8.06549 14.9196 8.04681H24.7025C24.8163 8.04681 24.93 8.05615 25.0438 8.07483H25.2144C26.5416 8.11219 27.6317 8.41107 28.4849 8.97147C29.3381 9.53188 29.9542 10.1763 30.3334 10.9049C30.7126 11.6147 30.9022 12.3339 30.9022 13.0624C30.9022 13.092 30.9019 13.1215 30.9014 13.151C30.6707 13.2462 30.4463 13.3582 30.2293 13.4879L30.198 13.5067L30.1676 13.5268C29.2947 14.1051 28.6012 14.9972 28.6012 16.2053C28.6012 17.4135 29.2947 18.3056 30.1676 18.8839L30.198 18.904L30.2293 18.9227C30.9356 19.3451 31.7192 19.5786 32.5468 19.6587ZM30.4229 15.4159C30.2592 15.6574 30.1773 15.9205 30.1773 16.2053C30.1773 16.7396 30.4654 17.1976 31.0414 17.5793C31.4277 17.8103 31.8633 17.9677 32.3482 18.0515C32.2628 17.7601 32.1505 17.47 32.0113 17.1814C31.6696 16.5256 31.1401 15.9372 30.4229 15.4159ZM33.9996 18.1231C33.867 17.3958 33.8007 16.6583 33.8007 15.9104C33.8007 15.364 33.838 14.823 33.9125 14.2876H37.5107C37.3694 14.8159 37.2987 15.3568 37.2987 15.9104C37.2987 16.5829 37.403 17.246 37.6116 17.8999C37.6385 17.9752 37.6673 18.0496 37.6977 18.1231H33.9996ZM38.2458 12.72H34.2414C34.2814 12.5782 34.3241 12.4368 34.3695 12.2958C34.7487 11.119 35.3649 10.0729 36.2181 9.15756C37.0712 8.22355 38.1614 7.71919 39.4885 7.64447H40.7967H50.4659C50.9968 7.66315 51.4328 7.85929 51.7741 8.23289C52.1343 8.6065 52.3144 9.05482 52.3144 9.57786C52.2196 10.6987 51.6035 11.3058 50.4659 11.3992H40.4554C39.735 11.4365 39.1378 11.7074 38.6638 12.2118C38.5118 12.3735 38.3725 12.5429 38.2458 12.72ZM60.4312 17.5978H57.0058L57.8717 15.9104C58.1751 15.1445 58.4689 14.4253 58.7533 13.7529C59.0567 13.0617 59.3885 12.4359 59.7487 11.8755C60.1089 11.3151 60.5165 11.0162 60.9716 10.9789C61.4076 11.0162 61.7963 11.3151 62.1376 11.8755C62.5167 12.4359 62.8485 13.0617 63.1329 13.7529C63.4363 14.4253 63.7396 15.1445 64.043 15.9104L64.9098 17.5978H60.4312ZM27.9161 20.5718C27.6886 20.7213 27.3947 20.7866 27.0345 20.768H17.9341H17.7066C17.1757 20.768 16.9103 20.5158 16.9103 20.0114V18.078H25.2144H27.0345C27.3947 18.0967 27.6886 18.1808 27.9161 18.3302C28.1626 18.4797 28.3427 18.6758 28.4565 18.9186C28.5702 19.1428 28.6271 19.3203 28.6271 19.451C28.6271 19.6565 28.5702 19.862 28.4565 20.0675C28.3427 20.2543 28.1626 20.4224 27.9161 20.5718ZM26.807 13.6228C26.6933 13.7909 26.5226 13.9404 26.2951 14.0711C26.0486 14.2206 25.7453 14.3046 25.3851 14.3233H16.9103V12.5581C16.9103 12.0537 17.1757 11.8015 17.7066 11.8015H25.3851C25.7453 11.8202 26.0392 11.9043 26.2667 12.0537C26.5131 12.1845 26.6933 12.3432 26.807 12.53C26.9208 12.6982 26.9776 12.8756 26.9776 13.0624C26.9776 13.2492 26.9208 13.436 26.807 13.6228ZM84.8564 24.2425C85.3683 24.7655 86.0034 25.027 86.7618 25.027C87.5202 25.027 88.1553 24.7655 88.6672 24.2425C89.1791 23.7194 89.4351 23.0656 89.4351 22.2811C89.4351 21.4965 89.1791 20.8427 88.6672 20.3196C88.1553 19.7966 87.5202 19.5351 86.7618 19.5351C86.0034 19.5351 85.3683 19.7966 84.8564 20.3196C84.3635 20.8427 84.117 21.4965 84.117 22.2811C84.117 23.0656 84.3635 23.7194 84.8564 24.2425ZM112.243 17.1814C112.603 17.9286 112.783 18.6851 112.783 19.451C112.783 20.1982 112.594 20.9454 112.215 21.6926C111.835 22.4212 111.219 23.075 110.366 23.654C109.513 24.2145 108.423 24.4947 107.096 24.4947H106.925C106.811 24.5133 106.697 24.5227 106.584 24.5227H95.1513C94.6394 24.504 94.2033 24.3265 93.8431 23.9903C93.5018 23.6354 93.3217 23.2057 93.3027 22.7014V9.86812C93.3217 9.36376 93.5018 8.94345 93.8431 8.60721C94.2033 8.25229 94.6394 8.06549 95.1513 8.04681H104.934C105.048 8.04681 105.162 8.05615 105.275 8.07483H105.446C106.773 8.11219 107.863 8.41107 108.717 8.97147C109.57 9.53188 110.186 10.1763 110.565 10.9049C110.944 11.6147 111.134 12.3339 111.134 13.0624C111.134 13.8096 110.954 14.5381 110.594 15.248C110.575 15.2854 110.556 15.3134 110.537 15.3321C111.314 15.8738 111.883 16.4902 112.243 17.1814ZM107.266 20.768C107.626 20.7866 107.92 20.7213 108.148 20.5718C108.394 20.4224 108.574 20.2543 108.688 20.0675C108.802 19.862 108.859 19.6565 108.859 19.451C108.859 19.3203 108.802 19.1428 108.688 18.9186C108.574 18.6758 108.394 18.4797 108.148 18.3302C107.92 18.1808 107.626 18.0967 107.266 18.078H105.446H97.142V20.0114C97.142 20.5158 97.4074 20.768 97.9383 20.768H98.1658H107.266ZM106.527 14.0711C106.754 13.9404 106.925 13.7909 107.039 13.6228C107.152 13.436 107.209 13.2492 107.209 13.0624C107.209 12.8756 107.152 12.6982 107.039 12.53C106.925 12.3432 106.745 12.1845 106.498 12.0537C106.271 11.9043 105.977 11.8202 105.617 11.8015H97.9383C97.4074 11.8015 97.142 12.0537 97.142 12.5581V14.3233H105.617C105.977 14.3046 106.28 14.2206 106.527 14.0711ZM132.699 8.94345C131.94 8.36437 131.078 8.06549 130.111 8.04681H129.57H120.726H120.185C118.858 8.10285 117.749 8.59787 116.858 9.53188C115.986 10.4472 115.36 11.5026 114.981 12.6982C114.602 13.875 114.412 15.0799 114.412 16.3128C114.412 17.5456 114.592 18.7599 114.953 19.9554C115.332 21.1509 115.967 22.2063 116.858 23.1217C117.749 24.037 118.858 24.5227 120.185 24.5787H130.111C131.438 24.504 132.537 24.009 133.409 23.0936C134.301 22.1783 134.936 21.1322 135.315 19.9554C135.713 18.7599 135.912 17.5456 135.912 16.3128C135.912 15.3788 135.798 14.4634 135.571 13.5668C135.343 12.6701 134.993 11.8202 134.519 11.0169C134.064 10.2137 133.457 9.52254 132.699 8.94345ZM130.935 20.0394C130.461 20.5251 129.864 20.7866 129.144 20.824H121.067C120.347 20.7866 119.74 20.5251 119.247 20.0394C118.773 19.5351 118.432 18.956 118.223 18.3022C118.015 17.6484 117.91 16.9852 117.91 16.3128C117.91 15.6403 118.015 14.9865 118.223 14.3513C118.451 13.6975 118.801 13.1185 119.275 12.6141C119.749 12.1097 120.347 11.8389 121.067 11.8015H129.144C129.864 11.8389 130.461 12.1097 130.935 12.6141C131.409 13.1185 131.751 13.6975 131.959 14.3513C132.187 14.9865 132.3 15.6403 132.3 16.3128C132.3 16.9852 132.196 17.6484 131.988 18.3022C131.779 18.956 131.428 19.5351 130.935 20.0394Z" fill="#0F051F"/>
  <path d="M38.4603 19.7469H34.4558C34.4958 19.8886 34.5385 20.03 34.5839 20.171C34.9631 21.3479 35.5793 22.3939 36.4324 23.3093C37.2856 24.2433 38.3758 24.7476 39.7029 24.8224H50.6803C51.2112 24.8037 52.9007 25.027 53.6565 24.2432C54.0167 23.8696 55.2326 21.6311 55.2326 21.1081C55.2326 21.1081 55.2326 21.0677 54.8386 21.1081L40.6698 21.0677C39.9494 21.0303 39.3522 20.7594 38.8782 20.2551C38.7262 20.0933 38.5869 19.9239 38.4603 19.7469Z" fill="#0F051F"/>
  <path d="M68.2357 9.69656C68.2357 9.16365 68.417 8.7164 68.7794 8.35478C69.161 7.97414 69.6189 7.78381 70.1531 7.78381H86.8081C87.3423 7.78381 87.8002 7.96462 88.1817 8.32623C88.5442 8.70688 88.7255 9.16365 88.7255 9.69656C88.7255 10.2295 88.5347 10.6862 88.1531 11.0669C87.7906 11.4285 87.3423 11.6093 86.8081 11.6093H80.4265V23.1714C80.3121 24.3133 79.6825 24.9319 78.5378 25.0271C78.0036 25.0271 77.5362 24.8558 77.1356 24.5132C76.754 24.1516 76.5633 23.7043 76.5633 23.1714V11.6093H70.1531C69.6189 11.6093 69.1705 11.419 68.8081 11.0383C68.4265 10.6767 68.2357 10.2295 68.2357 9.69656Z" fill="#0F051F"/>
  <ellipse cx="153.333" cy="15.5" rx="15.5847" ry="15.5" fill="#150C31"/>
  <path fill-rule="evenodd" clip-rule="evenodd" d="M150.219 17.4667C149.904 17.9152 149.556 18.3499 149.176 18.7707C148.423 19.6031 147.697 20.0465 146.999 20.1008H144.685C144.171 20.1008 143.739 20.2817 143.39 20.6437C143.023 20.9875 142.839 21.4128 142.839 21.9195C142.839 22.4262 143.014 22.8605 143.363 23.2224C143.73 23.5662 144.171 23.7381 144.685 23.7381H147.275C148.597 23.6658 149.956 22.9419 151.352 21.5666C151.602 21.3132 151.845 21.051 152.08 20.7802C151.955 20.5986 151.84 20.4106 151.74 20.2177L151.67 20.0918C151.616 19.9955 151.539 19.8578 151.446 19.6926C151.262 19.3622 151.016 18.9205 150.771 18.4765C150.578 18.1263 150.383 17.7711 150.219 17.4667ZM154.814 21.5572C154.193 20.9264 153.618 20.2419 153.088 19.5037C153.088 19.5037 153.088 19.5036 153.088 19.5036C153.088 19.5036 151.123 16.002 151.159 15.9477C151.049 15.7667 150.939 15.5767 150.829 15.3777C150.333 14.4547 149.708 13.5771 148.955 12.7446C148.908 12.6926 148.861 12.6421 148.815 12.593C148.63 12.4002 148.448 12.2304 148.267 12.0834C147.758 11.6695 147.262 11.4375 146.779 11.3874H144.465C143.95 11.3874 143.519 11.2064 143.17 10.8445C143.124 10.8015 143.081 10.7573 143.041 10.7118C143.012 10.679 142.984 10.6456 142.958 10.6115C142.732 10.3141 142.619 9.96649 142.619 9.56872C142.619 9.06202 142.793 8.63675 143.142 8.29292C143.51 7.931 143.95 7.75003 144.465 7.75003H146.779V7.77714H146.779V7.77718H147.054C148.129 7.83599 149.234 8.33085 150.369 9.26175C150.631 9.47656 150.894 9.7146 151.159 9.97585C151.163 9.97949 151.167 9.98312 151.17 9.98676C152.304 11.1366 153.025 12.4537 153.758 13.7918C154.153 14.5116 154.55 15.2374 155.017 15.9465C155.017 15.9469 155.017 15.9473 155.016 15.9477L155.127 16.1105C155.623 17.0515 156.247 17.9383 157 18.7707C157.337 19.143 157.668 19.4375 157.994 19.6542C158.397 19.9219 158.791 20.0708 159.177 20.1008H161.491C161.748 20.1008 161.984 20.146 162.2 20.2365C162.396 20.3186 162.575 20.438 162.737 20.5946C162.753 20.6105 162.769 20.6269 162.786 20.6437C163.153 20.9875 163.337 21.4128 163.337 21.9195C163.337 22.4262 163.153 22.8605 162.786 23.2224C162.437 23.5662 162.005 23.7381 161.491 23.7381H158.901C158.24 23.7019 157.569 23.5029 156.89 23.141C156.236 22.7928 155.574 22.294 154.903 21.6445C154.877 21.6187 154.85 21.5928 154.824 21.5666C154.821 21.5635 154.817 21.5603 154.814 21.5572ZM155.888 14.4658C156.275 13.8721 156.72 13.2983 157.22 12.7446C157.973 11.9122 158.699 11.4598 159.397 11.3874H161.711C162.225 11.3874 162.657 11.2064 163.006 10.8445C163.373 10.5006 163.557 10.0754 163.557 9.56868C163.557 9.06199 163.373 8.63672 163.006 8.29289C162.657 7.93096 162.225 7.75 161.711 7.75H159.397V7.77714H159.121C157.799 7.84953 156.44 8.58243 155.044 9.97585C154.675 10.3392 154.323 10.7266 153.989 11.1379C154.215 11.4961 154.424 11.8526 154.621 12.2018C154.801 12.5202 154.968 12.8251 155.13 13.1206C155.386 13.5872 155.628 14.0302 155.888 14.4658Z" fill="#CFFF00"/>
</svg>
