<svg width="21" height="16" viewBox="0 0 21 16" fill="none" xmlns="http://www.w3.org/2000/svg">
<path fill-rule="evenodd" clip-rule="evenodd" d="M7.60032 9.71669C7.28537 10.1652 6.93756 10.5999 6.55691 11.0207C5.80387 11.8531 5.07838 12.2965 4.38045 12.3508H2.06623C1.55196 12.3508 1.12034 12.5317 0.77137 12.8937C0.404035 13.2375 0.220376 13.6628 0.220376 14.1695C0.220376 14.6762 0.394863 15.1105 0.743831 15.4724C1.11117 15.8162 1.55196 15.9881 2.06623 15.9881H4.65595C5.97836 15.9158 7.33749 15.1919 8.73337 13.8166C8.98322 13.5632 9.22573 13.301 9.46088 13.0302C9.3359 12.8486 9.22064 12.6606 9.12118 12.4677L9.05067 12.3418C8.99672 12.2455 8.91975 12.1078 8.82752 11.9426C8.64318 11.6122 8.39739 11.1705 8.15243 10.7265C7.9592 10.3763 7.76452 10.0211 7.60032 9.71669ZM12.1954 13.8072C11.5745 13.1764 10.9991 12.4919 10.4691 11.7537C10.4691 11.7537 10.4691 11.7536 10.4691 11.7536C10.4691 11.7536 8.50382 8.25198 8.54055 8.19769C8.43035 8.01672 8.32015 7.82671 8.20995 7.62765C7.71405 6.70474 7.08958 5.82706 6.33654 4.99463C6.28947 4.9426 6.24252 4.89206 6.19567 4.843C6.01156 4.65022 5.82912 4.48036 5.64834 4.33343C5.13905 3.91947 4.64295 3.68745 4.16004 3.63737H1.84583C1.33156 3.63737 0.899948 3.45641 0.550979 3.09448C0.505073 3.05151 0.462034 3.00727 0.421865 2.96176C0.392946 2.92899 0.365514 2.89556 0.339569 2.86148C0.113191 2.56408 0 2.21649 0 1.81872C0 1.31202 0.174487 0.886754 0.523456 0.542923C0.890792 0.180996 1.33159 3.24249e-05 1.84586 3.24249e-05H4.16004V0.0271446H4.16008V0.027177H4.43558C5.51004 0.0859902 6.6148 0.580848 7.74988 1.51175C8.01181 1.72656 8.27536 1.9646 8.54051 2.22585C8.54411 2.22949 8.5477 2.23312 8.55129 2.23676C9.68471 3.38657 10.4063 4.70372 11.1394 6.04178C11.5338 6.76156 11.9314 7.48738 12.3983 8.19645C12.398 8.19685 12.3978 8.19725 12.3975 8.19765L12.5077 8.36052C13.0036 9.30153 13.6281 10.1883 14.3812 11.0207C14.718 11.393 15.0493 11.6875 15.3751 11.9042C15.7777 12.1719 16.1719 12.3208 16.5577 12.3508H18.8719C19.129 12.3508 19.3655 12.396 19.5813 12.4865C19.7771 12.5686 19.9559 12.688 20.1177 12.8446C20.1342 12.8605 20.1505 12.8769 20.1667 12.8937C20.534 13.2375 20.7177 13.6628 20.7177 14.1695C20.7177 14.6762 20.534 15.1105 20.1667 15.4724C19.8177 15.8162 19.3861 15.9881 18.8718 15.9881H16.2821C15.6209 15.9519 14.9505 15.7529 14.271 15.391C13.6173 15.0428 12.9551 14.544 12.2844 13.8945C12.2579 13.8687 12.2313 13.8428 12.2047 13.8166C12.2016 13.8135 12.1985 13.8103 12.1954 13.8072ZM13.2695 6.71582C13.6566 6.12206 14.1006 5.54832 14.6016 4.9946C15.3546 4.16216 16.0801 3.70975 16.778 3.63737H19.0922C19.6065 3.63737 20.0381 3.45641 20.3871 3.09448C20.7544 2.75065 20.9381 2.32538 20.9381 1.81868C20.9381 1.31199 20.7544 0.886722 20.3871 0.542891C20.0381 0.180964 19.6065 0 19.0922 0H16.778V0.0271446H16.5025C15.1801 0.09953 13.821 0.832433 12.4251 2.22585C12.0563 2.58923 11.7045 2.97659 11.3698 3.38795C11.5965 3.74606 11.8049 4.10257 12.0022 4.45179C12.1821 4.77021 12.3492 5.07512 12.5111 5.3706C12.7667 5.83716 13.0094 6.28021 13.2695 6.71582Z" fill="#CFFF00"/>
</svg>
